<svg xmlns="http://www.w3.org/2000/svg" viewBox="0 0 512 512" width="512" height="512">
  <defs>
    <linearGradient id="grad" x1="0%" y1="0%" x2="100%" y2="100%">
      <stop offset="0%" style="stop-color:#34d399;stop-opacity:1" />
      <stop offset="100%" style="stop-color:#059669;stop-opacity:1" />
    </linearGradient>
    <filter id="shadow" x="-20%" y="-20%" width="140%" height="140%">
      <feDropShadow dx="0" dy="8" stdDeviation="12" flood-color="#000000" flood-opacity="0.3"/>
    </filter>
  </defs>
  <rect width="512" height="512" rx="112" fill="url(#grad)" />
  <path d="M288 32 C280 32, 274.6 37.8, 272.9 45.4 L224 256 L152 256 C138.8 256, 128 266.8, 128 280 C128 286, 130.2 291.6, 134.1 295.9 L230.1 463.9 C238.2 477.5, 258.4 476, 264.4 461 L320 320 L384 320 C397.2 320, 408 309.2, 408 296 C408 288.7, 404.6 282.1, 399.2 277.8 C398.9 277.5, 398.6 277.2, 398.3 277 L290.3 37 C288.8 34, 285.8 32, 282.5 32 Z" fill="#ffffff" filter="url(#shadow)" />
</svg>
